<svg width="85" height="96" viewBox="0 0 85 96" fill="none" xmlns="http://www.w3.org/2000/svg">
<path d="M1.584 80V67.4H7.146C8.01 67.4 8.742 67.526 9.342 67.778C9.942 68.018 10.392 68.372 10.692 68.84C11.004 69.296 11.16 69.848 11.16 70.496C11.16 71.216 10.98 71.822 10.62 72.314C10.272 72.806 9.762 73.136 9.09 73.304L9.054 72.962C9.618 73.082 10.104 73.292 10.512 73.592C10.932 73.892 11.256 74.264 11.484 74.708C11.712 75.14 11.826 75.632 11.826 76.184C11.826 76.82 11.718 77.378 11.502 77.858C11.286 78.326 10.974 78.722 10.566 79.046C10.158 79.37 9.678 79.61 9.126 79.766C8.586 79.922 7.986 80 7.326 80H1.584ZM4.464 77.444H7.218C7.554 77.444 7.836 77.39 8.064 77.282C8.304 77.174 8.49 77.018 8.622 76.814C8.754 76.598 8.82 76.34 8.82 76.04C8.82 75.764 8.748 75.53 8.604 75.338C8.472 75.146 8.28 75.002 8.028 74.906C7.776 74.798 7.476 74.744 7.128 74.744H4.464V77.444ZM4.464 72.458H6.714C7.026 72.458 7.29 72.41 7.506 72.314C7.734 72.206 7.902 72.062 8.01 71.882C8.13 71.69 8.19 71.462 8.19 71.198C8.19 70.814 8.058 70.514 7.794 70.298C7.53 70.07 7.134 69.956 6.606 69.956H4.464V72.458ZM13.1431 80L18.1291 67.4H20.7211L25.6711 80H22.5751L20.1991 73.61C20.1031 73.358 20.0071 73.088 19.9111 72.8C19.8151 72.512 19.7191 72.218 19.6231 71.918C19.5271 71.606 19.4311 71.306 19.3351 71.018C19.2511 70.718 19.1791 70.442 19.1191 70.19L19.6591 70.172C19.5871 70.472 19.5031 70.766 19.4071 71.054C19.3231 71.342 19.2331 71.63 19.1371 71.918C19.0531 72.194 18.9571 72.476 18.8491 72.764C18.7411 73.04 18.6391 73.328 18.5431 73.628L16.1671 80H13.1431ZM15.5191 77.588L16.4731 75.284H22.2691L23.2051 77.588H15.5191ZM27.7831 80V67.4H30.5191L37.1251 76.4L36.5311 76.31C36.4711 75.914 36.4231 75.536 36.3871 75.176C36.3511 74.816 36.3151 74.462 36.2791 74.114C36.2551 73.766 36.2311 73.412 36.2071 73.052C36.1951 72.692 36.1831 72.302 36.1711 71.882C36.1711 71.462 36.1711 71.006 36.1711 70.514V67.4H39.1411V80H36.3691L29.4751 70.712L30.3931 70.838C30.4531 71.414 30.5011 71.906 30.5371 72.314C30.5851 72.71 30.6211 73.064 30.6451 73.376C30.6811 73.688 30.7051 73.97 30.7171 74.222C30.7291 74.474 30.7351 74.726 30.7351 74.978C30.7471 75.218 30.7531 75.488 30.7531 75.788V80H27.7831ZM48.6927 80.18C47.6847 80.18 46.7727 80.018 45.9567 79.694C45.1407 79.37 44.4387 78.914 43.8507 78.326C43.2627 77.738 42.8127 77.048 42.5007 76.256C42.1887 75.452 42.0327 74.582 42.0327 73.646C42.0327 72.71 42.1947 71.852 42.5187 71.072C42.8547 70.28 43.3287 69.59 43.9407 69.002C44.5527 68.414 45.2727 67.958 46.1007 67.634C46.9407 67.31 47.8527 67.148 48.8367 67.148C49.5327 67.148 50.1867 67.238 50.7987 67.418C51.4227 67.598 51.9867 67.844 52.4907 68.156C52.9947 68.468 53.4207 68.828 53.7687 69.236L51.9147 71.198C51.6147 70.91 51.3027 70.67 50.9787 70.478C50.6667 70.286 50.3307 70.136 49.9707 70.028C49.6107 69.908 49.2267 69.848 48.8187 69.848C48.2907 69.848 47.8047 69.944 47.3607 70.136C46.9287 70.328 46.5447 70.598 46.2087 70.946C45.8847 71.282 45.6327 71.684 45.4527 72.152C45.2727 72.608 45.1827 73.106 45.1827 73.646C45.1827 74.186 45.2787 74.69 45.4707 75.158C45.6627 75.626 45.9267 76.034 46.2627 76.382C46.5987 76.718 46.9947 76.988 47.4507 77.192C47.9187 77.384 48.4167 77.48 48.9447 77.48C49.3167 77.48 49.6647 77.42 49.9887 77.3C50.3247 77.18 50.6127 77.018 50.8527 76.814C51.0927 76.61 51.2847 76.37 51.4287 76.094C51.5727 75.806 51.6447 75.5 51.6447 75.176V74.708L52.0407 75.32H48.5667V72.926H54.4887C54.5127 73.058 54.5307 73.238 54.5427 73.466C54.5547 73.694 54.5607 73.916 54.5607 74.132C54.5727 74.348 54.5787 74.51 54.5787 74.618C54.5787 75.434 54.4287 76.184 54.1287 76.868C53.8407 77.54 53.4327 78.122 52.9047 78.614C52.3767 79.106 51.7527 79.49 51.0327 79.766C50.3127 80.042 49.5327 80.18 48.6927 80.18ZM62.7728 80.108C61.7287 80.108 60.7987 79.898 59.9828 79.478C59.1668 79.046 58.5248 78.458 58.0567 77.714C57.6007 76.97 57.3727 76.118 57.3727 75.158V67.4H60.4688V74.996C60.4688 75.452 60.5708 75.866 60.7748 76.238C60.9787 76.598 61.2548 76.886 61.6028 77.102C61.9507 77.306 62.3407 77.408 62.7728 77.408C63.2288 77.408 63.6308 77.306 63.9788 77.102C64.3388 76.886 64.6268 76.598 64.8428 76.238C65.0588 75.866 65.1668 75.452 65.1668 74.996V67.4H68.1548V75.158C68.1548 76.118 67.9208 76.97 67.4527 77.714C66.9968 78.458 66.3608 79.046 65.5447 79.478C64.7287 79.898 63.8048 80.108 62.7728 80.108ZM71.7664 80V67.4H74.5024L81.1084 76.4L80.5144 76.31C80.4544 75.914 80.4064 75.536 80.3704 75.176C80.3344 74.816 80.2984 74.462 80.2624 74.114C80.2384 73.766 80.2144 73.412 80.1904 73.052C80.1784 72.692 80.1664 72.302 80.1544 71.882C80.1544 71.462 80.1544 71.006 80.1544 70.514V67.4H83.1244V80H80.3524L73.4584 70.712L74.3764 70.838C74.4364 71.414 74.4844 71.906 74.5204 72.314C74.5684 72.71 74.6044 73.064 74.6284 73.376C74.6644 73.688 74.6884 73.97 74.7004 74.222C74.7124 74.474 74.7184 74.726 74.7184 74.978C74.7304 75.218 74.7364 75.488 74.7364 75.788V80H71.7664Z" fill="url(#paint0_linear_1129_1704)"/>
<g clip-path="url(#clip0_1129_1704)">
<path d="M56.5263 33.7617C59.8258 31.9936 62.6966 28.9012 63.1233 25.651C63.8826 19.8638 60.194 15.5093 55.4846 13.5031C49.8586 11.1046 53.613 12.8224 32.0975 7.1283C21.7565 4.39056 21.0946 1.83977 21.3263 0C18.5325 1.83977 17.6743 11.8568 22.5175 14.8694C27.4955 17.9648 37.4145 18.6109 49.8794 22.1706C60.8379 25.3006 59.216 31.0683 56.5263 33.7617Z" fill="url(#paint1_linear_1129_1704)"/>
<path d="M58.7411 35.4614C57.7658 34.8815 56.727 34.4167 55.6455 34.0765C40.0557 30.4835 38.6868 30.5593 33.515 29.2955C19.418 25.8503 21.1117 22.9805 20.7521 21.835C18.1531 24.6217 18.1092 33.3335 22.9271 35.9457C28.7698 39.115 39.0513 40.1501 52.0799 43.413C56.3174 44.4739 58.8004 45.7398 60.6545 47.2384C62.713 48.9028 63.2775 51.3354 61.7 53.3759C60.3197 55.1616 56.6313 54.8696 52.5426 54.2958C46.1391 53.3345 39.7881 52.0487 33.5136 50.4434C21.9136 47.2116 21.1117 44.1273 20.7521 42.9826C18.1531 45.7679 18.1092 54.4792 22.9271 57.0931C26.7469 59.165 30.3725 60.3559 38.2309 60.8313C43.9868 61.1792 54.4423 61.5053 59.5635 56.1572C60.0618 55.6375 64.0446 52.604 64.8686 47.3785C65.6347 42.5221 62.9819 37.9908 58.7411 35.4614Z" fill="url(#paint2_linear_1129_1704)"/>
<path d="M46.4706 32.0224H46.4668C51.1355 33.0364 55.646 34.0756 55.646 34.0756C55.7227 34.1 55.7992 34.1262 55.8756 34.1519C56.0977 34.0264 56.3168 33.897 56.5289 33.7599C59.2186 31.066 60.8386 25.2994 49.8801 22.1696C49.1237 21.9532 48.3768 21.7475 47.6396 21.5527C50.7102 22.8032 55.0487 29.5747 46.4706 32.0224Z" fill="url(#paint3_linear_1129_1704)"/>
<path d="M49.3471 53.1723C49.1394 53.3394 48.9231 53.4954 48.6992 53.6398C50.0091 53.8971 51.3041 54.1217 52.5429 54.2951C56.6316 54.8684 60.3199 55.1609 61.7003 53.3752C63.2777 51.3347 62.7133 48.9022 60.6548 47.2377C57.2477 44.4837 52.8344 43.5525 48.3477 42.5146C51.6269 44.0132 54.3793 49.094 49.3471 53.1723Z" fill="url(#paint4_linear_1129_1704)"/>
</g>
<path d="M16.68 92.26H19.12V93H15.77V86.03H16.68V92.26ZM19.7464 90.24C19.7464 89.68 19.8597 89.19 20.0864 88.77C20.3131 88.3433 20.6231 88.0133 21.0164 87.78C21.4164 87.5467 21.8597 87.43 22.3464 87.43C22.8264 87.43 23.2431 87.5333 23.5964 87.74C23.9497 87.9467 24.2131 88.2067 24.3864 88.52V87.52H25.3064V93H24.3864V91.98C24.2064 92.3 23.9364 92.5667 23.5764 92.78C23.2231 92.9867 22.8097 93.09 22.3364 93.09C21.8497 93.09 21.4097 92.97 21.0164 92.73C20.6231 92.49 20.3131 92.1533 20.0864 91.72C19.8597 91.2867 19.7464 90.7933 19.7464 90.24ZM24.3864 90.25C24.3864 89.8367 24.3031 89.4767 24.1364 89.17C23.9697 88.8633 23.7431 88.63 23.4564 88.47C23.1764 88.3033 22.8664 88.22 22.5264 88.22C22.1864 88.22 21.8764 88.3 21.5964 88.46C21.3164 88.62 21.0931 88.8533 20.9264 89.16C20.7597 89.4667 20.6764 89.8267 20.6764 90.24C20.6764 90.66 20.7597 91.0267 20.9264 91.34C21.0931 91.6467 21.3164 91.8833 21.5964 92.05C21.8764 92.21 22.1864 92.29 22.5264 92.29C22.8664 92.29 23.1764 92.21 23.4564 92.05C23.7431 91.8833 23.9697 91.6467 24.1364 91.34C24.3031 91.0267 24.3864 90.6633 24.3864 90.25ZM27.7542 88.54C27.9409 88.2133 28.2142 87.9467 28.5742 87.74C28.9342 87.5333 29.3442 87.43 29.8042 87.43C30.2976 87.43 30.7409 87.5467 31.1342 87.78C31.5276 88.0133 31.8376 88.3433 32.0642 88.77C32.2909 89.19 32.4042 89.68 32.4042 90.24C32.4042 90.7933 32.2909 91.2867 32.0642 91.72C31.8376 92.1533 31.5242 92.49 31.1242 92.73C30.7309 92.97 30.2909 93.09 29.8042 93.09C29.3309 93.09 28.9142 92.9867 28.5542 92.78C28.2009 92.5733 27.9342 92.31 27.7542 91.99V93H26.8442V85.6H27.7542V88.54ZM31.4742 90.24C31.4742 89.8267 31.3909 89.4667 31.2242 89.16C31.0576 88.8533 30.8309 88.62 30.5442 88.46C30.2642 88.3 29.9542 88.22 29.6142 88.22C29.2809 88.22 28.9709 88.3033 28.6842 88.47C28.4042 88.63 28.1776 88.8667 28.0042 89.18C27.8376 89.4867 27.7542 89.8433 27.7542 90.25C27.7542 90.6633 27.8376 91.0267 28.0042 91.34C28.1776 91.6467 28.4042 91.8833 28.6842 92.05C28.9709 92.21 29.2809 92.29 29.6142 92.29C29.9542 92.29 30.2642 92.21 30.5442 92.05C30.8309 91.8833 31.0576 91.6467 31.2242 91.34C31.3909 91.0267 31.4742 90.66 31.4742 90.24ZM35.992 93.09C35.4787 93.09 35.012 92.9733 34.592 92.74C34.1787 92.5067 33.852 92.1767 33.612 91.75C33.3787 91.3167 33.262 90.8167 33.262 90.25C33.262 89.69 33.382 89.1967 33.622 88.77C33.8687 88.3367 34.202 88.0067 34.622 87.78C35.042 87.5467 35.512 87.43 36.032 87.43C36.552 87.43 37.022 87.5467 37.442 87.78C37.862 88.0067 38.192 88.3333 38.432 88.76C38.6787 89.1867 38.802 89.6833 38.802 90.25C38.802 90.8167 38.6754 91.3167 38.422 91.75C38.1754 92.1767 37.8387 92.5067 37.412 92.74C36.9854 92.9733 36.512 93.09 35.992 93.09ZM35.992 92.29C36.3187 92.29 36.6254 92.2133 36.912 92.06C37.1987 91.9067 37.4287 91.6767 37.602 91.37C37.782 91.0633 37.872 90.69 37.872 90.25C37.872 89.81 37.7854 89.4367 37.612 89.13C37.4387 88.8233 37.212 88.5967 36.932 88.45C36.652 88.2967 36.3487 88.22 36.022 88.22C35.6887 88.22 35.382 88.2967 35.102 88.45C34.8287 88.5967 34.6087 88.8233 34.442 89.13C34.2754 89.4367 34.192 89.81 34.192 90.25C34.192 90.6967 34.272 91.0733 34.432 91.38C34.5987 91.6867 34.8187 91.9167 35.092 92.07C35.3654 92.2167 35.6654 92.29 35.992 92.29ZM40.9085 88.41C41.0685 88.0967 41.2952 87.8533 41.5885 87.68C41.8885 87.5067 42.2518 87.42 42.6785 87.42V88.36H42.4385C41.4185 88.36 40.9085 88.9133 40.9085 90.02V93H39.9985V87.52H40.9085V88.41ZM43.389 90.24C43.389 89.68 43.5023 89.19 43.729 88.77C43.9557 88.3433 44.2657 88.0133 44.659 87.78C45.059 87.5467 45.5023 87.43 45.989 87.43C46.469 87.43 46.8857 87.5333 47.239 87.74C47.5923 87.9467 47.8557 88.2067 48.029 88.52V87.52H48.949V93H48.029V91.98C47.849 92.3 47.579 92.5667 47.219 92.78C46.8657 92.9867 46.4523 93.09 45.979 93.09C45.4923 93.09 45.0523 92.97 44.659 92.73C44.2657 92.49 43.9557 92.1533 43.729 91.72C43.5023 91.2867 43.389 90.7933 43.389 90.24ZM48.029 90.25C48.029 89.8367 47.9457 89.4767 47.779 89.17C47.6123 88.8633 47.3857 88.63 47.099 88.47C46.819 88.3033 46.509 88.22 46.169 88.22C45.829 88.22 45.519 88.3 45.239 88.46C44.959 88.62 44.7357 88.8533 44.569 89.16C44.4023 89.4667 44.319 89.8267 44.319 90.24C44.319 90.66 44.4023 91.0267 44.569 91.34C44.7357 91.6467 44.959 91.8833 45.239 92.05C45.519 92.21 45.829 92.29 46.169 92.29C46.509 92.29 46.819 92.21 47.099 92.05C47.3857 91.8833 47.6123 91.6467 47.779 91.34C47.9457 91.0267 48.029 90.6633 48.029 90.25ZM51.5968 88.27V91.5C51.5968 91.7667 51.6535 91.9567 51.7668 92.07C51.8801 92.1767 52.0768 92.23 52.3568 92.23H53.0268V93H52.2068C51.7001 93 51.3201 92.8833 51.0668 92.65C50.8135 92.4167 50.6868 92.0333 50.6868 91.5V88.27H49.9768V87.52H50.6868V86.14H51.5968V87.52H53.0268V88.27H51.5968ZM56.5194 93.09C56.006 93.09 55.5394 92.9733 55.1194 92.74C54.706 92.5067 54.3794 92.1767 54.1394 91.75C53.906 91.3167 53.7894 90.8167 53.7894 90.25C53.7894 89.69 53.9094 89.1967 54.1494 88.77C54.396 88.3367 54.7294 88.0067 55.1494 87.78C55.5694 87.5467 56.0394 87.43 56.5594 87.43C57.0794 87.43 57.5494 87.5467 57.9694 87.78C58.3894 88.0067 58.7194 88.3333 58.9594 88.76C59.206 89.1867 59.3294 89.6833 59.3294 90.25C59.3294 90.8167 59.2027 91.3167 58.9494 91.75C58.7027 92.1767 58.366 92.5067 57.9394 92.74C57.5127 92.9733 57.0394 93.09 56.5194 93.09ZM56.5194 92.29C56.846 92.29 57.1527 92.2133 57.4394 92.06C57.726 91.9067 57.956 91.6767 58.1294 91.37C58.3094 91.0633 58.3994 90.69 58.3994 90.25C58.3994 89.81 58.3127 89.4367 58.1394 89.13C57.966 88.8233 57.7394 88.5967 57.4594 88.45C57.1794 88.2967 56.876 88.22 56.5494 88.22C56.216 88.22 55.9094 88.2967 55.6294 88.45C55.356 88.5967 55.136 88.8233 54.9694 89.13C54.8027 89.4367 54.7194 89.81 54.7194 90.25C54.7194 90.6967 54.7994 91.0733 54.9594 91.38C55.126 91.6867 55.346 91.9167 55.6194 92.07C55.8927 92.2167 56.1927 92.29 56.5194 92.29ZM61.4359 88.41C61.5959 88.0967 61.8225 87.8533 62.1159 87.68C62.4159 87.5067 62.7792 87.42 63.2059 87.42V88.36H62.9659C61.9459 88.36 61.4359 88.9133 61.4359 90.02V93H60.5259V87.52H61.4359V88.41ZM68.9763 87.52L65.6763 95.58H64.7363L65.8163 92.94L63.6063 87.52H64.6163L66.3363 91.96L68.0363 87.52H68.9763Z" fill="#454545"/>
<defs>
<linearGradient id="paint0_linear_1129_1704" x1="-6.61677" y1="51.5882" x2="164.029" y2="116.612" gradientUnits="userSpaceOnUse">
<stop stop-color="#0B6259"/>
<stop offset="1" stop-color="#20AE3A"/>
</linearGradient>
<linearGradient id="paint1_linear_1129_1704" x1="15.6186" y1="-13.2399" x2="115.188" y2="0.773969" gradientUnits="userSpaceOnUse">
<stop stop-color="#0B6259"/>
<stop offset="1" stop-color="#20AE3A"/>
</linearGradient>
<linearGradient id="paint2_linear_1129_1704" x1="15.4192" y1="6.47612" x2="119.515" y2="19.6302" gradientUnits="userSpaceOnUse">
<stop stop-color="#0B6259"/>
<stop offset="1" stop-color="#20AE3A"/>
</linearGradient>
<linearGradient id="paint3_linear_1129_1704" x1="45.5296" y1="16.6119" x2="72.9204" y2="19.428" gradientUnits="userSpaceOnUse">
<stop stop-color="#0B6259"/>
<stop offset="1" stop-color="#20AE3A"/>
</linearGradient>
<linearGradient id="paint4_linear_1129_1704" x1="47.2376" y1="37.722" x2="79.5125" y2="41.7734" gradientUnits="userSpaceOnUse">
<stop stop-color="#0B6259"/>
<stop offset="1" stop-color="#20AE3A"/>
</linearGradient>
<clipPath id="clip0_1129_1704">
<rect width="46" height="61" fill="white" transform="translate(19)"/>
</clipPath>
</defs>
</svg>
